<?xml version="1.0" encoding="UTF-8"?>
<svg width="256" height="256" viewBox="0 0 256 256" xmlns="http://www.w3.org/2000/svg">
  <defs>
    <linearGradient id="grad" x1="0" y1="0" x2="1" y2="1">
      <stop offset="0%" stop-color="#8b5cf6"/>
      <stop offset="100%" stop-color="#06b6d4"/>
    </linearGradient>
    <filter id="shadow" x="-20%" y="-20%" width="140%" height="140%">
      <feDropShadow dx="0" dy="3" stdDeviation="6" flood-color="#000" flood-opacity="0.25"/>
    </filter>
  </defs>
  <rect x="0" y="0" width="256" height="256" rx="24" fill="url(#grad)"/>
  <g filter="url(#shadow)" transform="translate(0,6)">
    <!-- Theater masks -->
    <path d="M80 92c0-22 18-40 40-40s40 18 40 40-18 40-40 40-40-18-40-40z" fill="#ffffff" opacity="0.9"/>
    <path d="M156 100c0 22 18 40 40 40s40-18 40-40c0-14-6-26-24-32-18-6-32-6-40 0-10 6-16 18-16 32z" fill="#ffffff" opacity="0.7"/>
    <circle cx="112" cy="96" r="6" fill="#1f2937"/>
    <circle cx="144" cy="96" r="6" fill="#1f2937"/>
    <path d="M104 116c8 8 24 8 32 0" stroke="#1f2937" stroke-width="6" fill="none" stroke-linecap="round"/>
  </g>
</svg>